<svg xmlns="http://www.w3.org/2000/svg" viewBox="0 0 24 24"><path d="M20 11.8a8 8 0 1 1-14.4-4.8L4 4l3 .9A8 8 0 0 1 20 11.8z" fill="none" stroke="currentColor" stroke-width="1.7" stroke-linejoin="round"/><path d="M10 8.6c-.3-.6-.5-.6-.8-.6-.2 0-.6 0-.9.4-.3.4-1 .9-1 2.2s1 2.5 1.2 2.7c.2.2 2 3.1 4.9 4.2 2.4.9 2.9.7 3.4.7s1.5-.6 1.7-1.2c.2-.6.2-1.1.2-1.2 0-.1-.2-.2-.5-.4s-1.8-.9-2-.9c-.3 0-.4 0-.6.2-.2.2-.7.9-.9 1-.2.2-.4.2-.7.1-.3-.1-1.1-.4-2-1.2-.7-.6-1.2-1.4-1.4-1.7-.2-.3 0-.5.2-.7l.4-.5c.1-.2.2-.3.3-.5.1-.2 0-.4 0-.6 0-.2-.6-1.5-.8-2z" fill="currentColor"/></svg>